
<svg width="34" height="42" viewBox="0 0 34 42" fill="none" xmlns="http://www.w3.org/2000/svg">
<path d="M30.2067 19.1333C29.67 18.4333 29.0167 17.8267 28.41 17.22C26.8467 15.82 25.0733 14.8167 23.58 13.3467C20.1033 9.94 19.3333 4.31667 21.55 0C19.3333 0.536667 17.3967 1.75 15.74 3.08C9.69666 7.93333 7.31666 16.4967 10.1633 23.8467C10.2567 24.08 10.35 24.3133 10.35 24.6167C10.35 25.13 9.99999 25.5967 9.53333 25.7833C8.99666 26.0167 8.43666 25.8767 7.99333 25.5033C7.86011 25.3932 7.74922 25.2585 7.66666 25.1067C5.02999 21.77 4.60999 16.9867 6.38333 13.16C2.48666 16.3333 0.363327 21.7 0.666661 26.7633C0.806661 27.93 0.946661 29.0967 1.34333 30.2633C1.66999 31.6633 2.29999 33.0633 2.99999 34.3C5.51999 38.3367 9.88333 41.23 14.5733 41.8133C19.5667 42.4433 24.91 41.5333 28.7367 38.08C33.0067 34.2067 34.5 28 32.3067 22.68L32.0033 22.0733C31.5133 21 30.2067 19.1333 30.2067 19.1333ZM22.8333 33.8333C22.18 34.3933 21.1067 35 20.2667 35.2333C17.6533 36.1667 15.04 34.86 13.5 33.32C16.2767 32.6667 17.9333 30.6133 18.4233 28.5367C18.82 26.67 18.0733 25.13 17.77 23.3333C17.49 21.6067 17.5367 20.1367 18.1667 18.5267C18.61 19.4133 19.0767 20.3 19.6367 21C21.4333 23.3333 24.2567 24.36 24.8633 27.5333C24.9567 27.86 25.0033 28.1867 25.0033 28.5367C25.0733 30.45 24.2333 32.55 22.8333 33.8333Z" fill="#D73D3D"/>
</svg>
